<?xml version="1.0" standalone="no"?>
<!DOCTYPE svg PUBLIC "-//W3C//DTD SVG 20010904//EN"
 "http://www.w3.org/TR/2001/REC-SVG-20010904/DTD/svg10.dtd">
<svg version="1.0" xmlns="http://www.w3.org/2000/svg"
 width="581.000000pt" height="558.000000pt" viewBox="0 0 581.000000 558.000000"
 preserveAspectRatio="xMidYMid meet">

<g transform="translate(0.000000,558.000000) scale(0.100000,-0.100000)"
fill="#000000" stroke="none">
<path d="M2855 5256 c-5 -2 -57 -18 -115 -36 -58 -17 -130 -40 -160 -50 -30
-10 -102 -32 -160 -50 -58 -17 -175 -53 -260 -80 -85 -27 -216 -68 -290 -90
-74 -23 -169 -53 -210 -66 -41 -14 -88 -29 -105 -34 -47 -13 -290 -88 -405
-125 -116 -36 -272 -84 -395 -122 -128 -39 -132 -41 -139 -76 -27 -132 -41
-779 -22 -1040 7 -107 10 -119 30 -128 11 -5 62 -34 111 -65 72 -44 340 -181
440 -224 196 -86 495 -189 737 -254 32 -9 82 -22 110 -30 29 -8 78 -20 108
-27 174 -38 192 -52 162 -119 -8 -19 -18 -55 -22 -80 -4 -25 -15 -64 -25 -88
-17 -41 -17 -45 0 -82 27 -61 76 -102 115 -98 34 3 45 15 55 60 7 36 38 64 83
75 72 18 146 -26 186 -111 14 -30 26 -67 26 -81 0 -15 4 -24 10 -20 22 13 5
140 -25 185 -6 9 -25 28 -43 43 -30 24 -42 27 -104 27 -53 0 -79 -5 -103 -20
-38 -24 -65 -61 -65 -90 0 -11 -6 -20 -14 -20 -22 0 -56 49 -56 79 0 33 26 71
48 71 29 0 186 52 205 68 9 8 17 23 17 33 0 10 10 25 23 33 33 22 162 46 247
46 75 1 75 1 41 15 -77 34 -245 12 -336 -44 -35 -21 -50 -35 -76 -73 -5 -8
-106 -48 -121 -48 -4 0 -10 9 -13 20 -17 52 81 169 183 220 67 34 215 34 322
1 97 -31 126 -46 237 -124 114 -81 133 -88 133 -52 0 61 42 90 166 115 99 20
281 59 349 75 187 44 243 59 251 68 4 4 14 7 23 7 28 0 340 102 426 140 11 5
67 28 125 51 134 55 390 184 485 247 11 7 28 15 38 18 9 4 17 10 17 15 0 5 6
9 13 9 6 1 24 11 38 23 l26 22 12 245 c12 258 3 634 -20 837 -14 118 10 99
-199 163 -74 23 -207 64 -295 91 -88 27 -205 64 -260 80 -55 17 -131 41 -170
54 -38 12 -104 33 -145 45 -146 44 -509 157 -610 190 -30 10 -89 28 -130 40
-41 12 -106 33 -145 45 -235 78 -331 102 -360 91z m127 -200 c24 -8 104 -33
178 -56 74 -23 146 -45 160 -50 14 -5 72 -23 130 -40 58 -18 130 -40 160 -50
30 -10 102 -32 160 -50 58 -18 139 -43 180 -56 41 -13 82 -24 90 -24 9 0 20
-4 25 -8 6 -5 39 -17 75 -26 36 -10 74 -22 85 -26 11 -5 47 -16 80 -25 33 -10
92 -27 130 -40 39 -12 97 -30 130 -40 33 -10 69 -21 80 -25 11 -4 36 -12 55
-18 100 -30 248 -76 273 -84 22 -9 27 -16 27 -47 1 -20 5 -56 10 -81 16 -84
33 -560 25 -731 l-7 -166 -56 -26 c-30 -15 -58 -24 -62 -22 -3 2 -2 43 3 92
10 104 3 589 -12 751 -10 116 -19 142 -52 142 -11 0 -27 4 -37 9 -9 5 -64 24
-122 41 -58 18 -116 36 -130 40 -14 5 -86 27 -160 50 -74 23 -146 45 -160 50
-23 8 -225 71 -345 107 -27 8 -75 23 -105 33 -30 10 -77 25 -105 33 -120 36
-322 99 -345 107 -14 5 -86 27 -160 50 -74 23 -146 45 -160 50 -125 43 -132
43 -211 17 -41 -13 -114 -37 -164 -52 -49 -16 -121 -38 -160 -50 -38 -12 -97
-30 -130 -40 -33 -9 -69 -21 -80 -25 -11 -5 -67 -23 -125 -40 -58 -17 -116
-35 -130 -39 -14 -5 -65 -21 -115 -36 -49 -16 -121 -38 -160 -50 -38 -12 -97
-30 -130 -40 -33 -10 -69 -21 -80 -26 -11 -4 -67 -22 -125 -39 -58 -18 -130
-40 -160 -50 -30 -10 -82 -26 -115 -35 -33 -9 -69 -21 -80 -25 -11 -5 -47 -16
-80 -26 -33 -9 -67 -23 -76 -31 -25 -21 -34 -181 -34 -595 0 -415 8 -377 -76
-342 -35 15 -36 18 -43 82 -16 172 -2 658 24 859 14 105 -2 92 170 143 58 18
130 40 160 50 30 10 78 25 105 33 28 8 111 34 185 57 74 23 149 46 165 51 17
5 64 20 105 33 41 13 136 42 210 65 74 23 182 57 240 75 58 19 132 42 165 51
33 10 92 28 130 41 71 23 297 93 390 121 28 8 55 17 60 19 16 5 81 -5 127 -20z
m-63 -491 l16 -50 65 -5 65 -5 -52 -38 c-53 -39 -55 -44 -31 -93 5 -12 8 -31
6 -43 -3 -22 -4 -22 -43 8 -49 37 -59 38 -101 6 -57 -43 -63 -34 -36 52 10 31
9 34 -41 70 l-52 38 62 3 c68 3 73 8 93 70 7 23 18 41 23 39 5 -1 16 -25 26
-52z m-564 -142 c10 -41 24 -53 61 -53 19 0 34 -4 34 -10 0 -5 -4 -10 -8 -10
-5 0 -18 -9 -30 -20 -18 -17 -20 -25 -12 -46 19 -48 13 -58 -19 -35 -36 26
-46 26 -82 0 l-30 -21 7 49 c6 45 4 50 -20 62 -36 19 -33 31 8 31 37 0 51 12
61 53 4 15 11 27 15 27 4 0 11 -12 15 -27z m1160 -53 c42 0 43 -6 10 -32 -26
-20 -32 -52 -16 -78 17 -25 0 -31 -29 -10 -34 24 -43 25 -76 4 -32 -21 -37
-16 -21 25 11 31 10 34 -23 61 l-35 29 32 1 c42 0 63 9 63 27 0 8 5 24 11 35
10 19 12 18 30 -21 16 -37 22 -41 54 -41z m-2084 -630 c58 -16 84 -52 84 -115
0 -39 -5 -59 -20 -75 -26 -29 -75 -50 -119 -50 -63 0 -66 -4 -66 -91 l0 -79
-35 0 -36 0 3 123 3 122 75 1 c81 1 120 14 120 42 -1 39 -17 47 -107 52 l-88
5 -3 38 -3 37 78 0 c43 0 94 -5 114 -10z m405 -33 c28 -30 34 -45 34 -81 0
-37 -6 -51 -35 -82 -19 -20 -35 -41 -35 -45 0 -5 16 -41 35 -80 19 -40 35 -76
35 -81 0 -4 -18 -8 -40 -8 l-41 0 -36 78 c-21 42 -42 80 -48 84 -27 20 -34 6
-37 -74 l-3 -83 -38 -3 -38 -3 3 123 3 123 85 3 c86 3 110 12 110 41 -1 38
-18 46 -107 51 l-88 5 -3 39 -3 38 106 -4 107 -4 34 -37z m412 16 c45 -29 71
-65 88 -123 14 -47 14 -62 4 -105 -27 -107 -96 -165 -195 -165 -126 0 -200 80
-200 215 0 58 5 77 26 110 32 50 49 63 96 81 48 18 143 11 181 -13z m427 -8
l0 -30 -125 0 c-112 0 -125 2 -128 18 -9 45 1 48 130 45 l123 -3 0 -30z m265
1 c0 -39 -11 -46 -76 -46 l-44 0 0 -45 0 -44 83 -3 82 -3 0 -35 0 -35 -80 -5
-80 -5 -3 -42 -3 -42 58 -3 58 -3 3 -37 3 -38 -100 0 -101 0 0 203 c0 112 3
207 7 210 3 4 48 7 100 7 l93 0 0 -34z m435 -51 l0 -80 -37 -3 -38 -3 0 47 0
47 -49 -5 c-72 -7 -111 -52 -111 -127 0 -94 44 -131 156 -131 77 0 84 -5 84
-57 l0 -25 -87 4 c-103 5 -151 24 -196 81 -25 30 -32 49 -35 97 -6 83 4 125
40 165 49 57 98 74 208 71 l65 -1 0 -80z m325 50 l0 -35 -125 0 -125 0 0 35 0
35 125 0 125 0 0 -35z m373 8 c101 -59 128 -231 50 -323 -108 -129 -330 -68
-350 97 -11 94 3 140 57 193 27 28 60 50 76 53 52 9 134 -1 167 -20z m419 -12
c24 -26 28 -40 28 -87 0 -49 -4 -59 -30 -84 -16 -15 -30 -33 -30 -40 0 -6 12
-37 26 -68 49 -107 49 -102 1 -102 l-42 0 -35 80 c-33 75 -56 100 -80 85 -5
-3 -10 -42 -10 -86 l0 -79 -40 0 -41 0 3 122 3 123 75 3 c113 4 120 6 120 47
0 41 -7 44 -120 47 -70 3 -75 5 -78 26 -8 52 0 55 115 50 104 -5 107 -5 135
-37z m-1924 -117 c21 -6 22 -10 22 -135 l0 -129 -40 0 -40 0 0 129 c0 124 3
137 30 140 3 0 15 -2 28 -5z m1040 -6 c11 -15 16 -192 6 -232 -5 -22 -12 -26
-39 -26 -43 0 -47 11 -44 146 2 97 4 107 23 114 30 12 42 12 54 -2z"/>
<path d="M2103 3669 c-49 -14 -78 -63 -78 -130 0 -95 60 -149 148 -132 65 13
108 100 86 174 -12 40 -58 89 -84 89 -7 0 -19 2 -27 4 -7 2 -27 0 -45 -5z m58
-99 c38 -21 12 -79 -30 -65 -27 8 -34 35 -15 56 20 22 20 22 45 9z"/>
<path d="M3934 3669 c-50 -14 -77 -51 -82 -116 -8 -97 37 -150 126 -146 62 2
100 42 109 111 12 104 -62 177 -153 151z m60 -108 c28 -31 -2 -69 -45 -56 -24
8 -25 51 -1 64 23 14 27 14 46 -8z"/>
<path d="M676 2823 c3 -16 10 -41 14 -58 5 -16 12 -51 16 -78 7 -54 8 -54 66
-66 24 -5 79 -17 123 -26 44 -9 98 -21 120 -25 64 -13 278 -59 301 -66 40 -11
37 16 -3 32 -21 8 -47 19 -58 23 -19 8 -75 32 -120 51 -129 53 -274 127 -374
189 -44 28 -83 51 -86 51 -3 0 -3 -12 1 -27z"/>
<path d="M4990 2779 c-89 -55 -232 -129 -345 -179 -94 -42 -156 -72 -153 -75
8 -6 309 44 423 70 39 9 85 20 104 23 38 8 39 10 66 137 17 81 18 85 8 84 -5
-1 -51 -28 -103 -60z"/>
<path d="M800 2343 c0 -36 123 -362 196 -521 19 -41 34 -75 34 -76 0 -8 107
-199 158 -281 247 -406 578 -740 982 -991 219 -137 628 -314 724 -314 45 0
133 30 310 106 138 60 196 89 341 169 53 30 276 175 285 185 3 3 25 22 50 41
92 69 156 126 270 239 109 110 150 156 245 274 106 133 287 426 361 586 14 30
39 83 55 117 16 34 29 65 29 68 0 4 7 21 15 38 28 59 125 338 125 359 0 5 -28
-6 -62 -25 -35 -19 -90 -48 -123 -65 -55 -27 -77 -37 -160 -72 -125 -52 -296
-93 -522 -126 -18 -3 -33 -9 -33 -14 0 -6 2 -10 5 -10 2 0 28 -7 57 -15 29 -8
94 -25 143 -39 50 -13 101 -29 115 -34 l25 -10 -37 -16 c-140 -60 -406 -100
-702 -105 -50 -1 -40 -11 44 -46 108 -45 130 -57 130 -71 0 -10 -14 -14 -52
-14 -101 1 -448 -24 -448 -32 0 -4 20 -22 45 -40 69 -52 62 -58 -70 -58 -104
0 -115 -2 -115 -18 0 -10 4 -22 9 -27 5 -6 12 -21 16 -34 7 -23 6 -23 -38 -17
-44 7 -45 7 -50 -26 -3 -18 0 -64 5 -103 17 -106 67 -194 238 -419 17 -22 28
-41 26 -43 -3 -3 -37 1 -78 8 -40 7 -91 13 -113 13 l-40 1 -3 -138 c-1 -84 -6
-137 -13 -137 -5 0 -27 9 -48 19 -41 21 -85 68 -114 122 l-19 34 -18 -55 c-10
-30 -29 -91 -43 -135 -14 -46 -30 -81 -38 -83 -23 -4 -89 123 -89 170 0 9 -5
40 -11 69 l-11 51 -31 -53 c-16 -30 -42 -65 -56 -80 -27 -27 -82 -59 -100 -59
-7 0 -11 52 -13 138 l-3 137 -40 -1 c-22 0 -75 -7 -118 -14 -43 -7 -81 -10
-84 -6 -3 3 16 30 43 59 74 79 91 101 139 179 51 83 79 160 96 271 14 92 8
101 -49 81 -43 -14 -49 -7 -28 35 31 59 28 61 -104 61 -136 0 -138 2 -57 65
l52 40 -110 6 c-60 4 -181 10 -267 14 -87 5 -158 12 -158 16 0 9 77 46 165 81
78 30 77 38 -5 38 -218 0 -541 52 -668 106 l-37 16 25 10 c14 5 66 21 115 34
180 49 199 55 204 59 10 11 -13 19 -72 26 -58 7 -153 25 -257 48 -50 11 -179
52 -225 71 -16 7 -46 19 -65 27 -45 19 -206 99 -247 125 -18 11 -33 16 -33 11z
m305 -258 c50 -22 58 -29 78 -77 72 -174 261 -505 350 -613 9 -11 45 -56 80
-100 175 -217 472 -466 723 -606 145 -80 358 -179 386 -179 8 0 18 -3 21 -6
29 -29 188 -56 202 -35 3 5 20 13 37 17 18 3 39 10 48 14 8 4 62 27 120 51
200 82 379 184 577 331 288 212 538 498 722 828 32 58 127 248 156 313 11 27
27 43 53 54 20 8 45 19 54 24 20 10 48 12 48 3 0 -36 -219 -494 -255 -533 -8
-10 -15 -22 -15 -28 0 -6 -3 -13 -8 -15 -4 -1 -27 -34 -52 -73 -40 -62 -116
-172 -130 -185 -3 -3 -23 -27 -45 -55 -55 -69 -268 -282 -335 -336 -30 -24
-57 -46 -60 -50 -24 -29 -291 -207 -380 -253 -141 -73 -259 -129 -340 -161
-52 -20 -104 -40 -115 -45 -55 -22 -113 -40 -133 -40 -23 0 -95 22 -205 64
-114 43 -331 145 -408 192 -31 18 -67 40 -80 47 -32 17 -173 109 -179 117 -3
3 -25 21 -50 40 -78 59 -222 183 -276 236 -217 218 -412 495 -549 779 -74 155
-74 154 -109 243 -23 59 -24 62 -6 62 11 0 44 -11 75 -25z"/>
</g>
</svg>
